# Blender v2.79 (sub 0) OBJ File: 'lowPoly_Pine.blend'
# www.blender.org
o Tree_Circle
v 0.000000 0.000000 -1.000000
v -0.707107 0.000000 -0.707107
v -1.000000 0.000000 0.000000
v -0.707107 0.000000 0.707107
v 0.000000 0.000000 1.000000
v 0.707107 0.000000 0.707107
v 1.000000 0.000000 -0.000000
v 0.707107 0.000000 -0.707107
v 0.000000 20.000000 -0.000000
v 0.000000 6.000000 -6.000000
v -4.242640 6.000000 -4.242640
v -6.000000 6.000000 0.000000
v -4.242640 6.000000 4.242640
v 0.000001 6.000000 6.000000
v 4.242641 6.000000 4.242640
v 6.000000 6.000000 -0.000000
v 4.242641 6.000000 -4.242640
v 0.000000 9.000000 -4.200000
v -2.969848 9.000000 -2.969848
v -4.200000 9.000000 0.000000
v -2.969848 9.000000 2.969848
v 0.000000 9.000000 4.200000
v 2.969849 9.000000 2.969848
v 4.200000 9.000000 -0.000000
v 2.969849 9.000000 -2.969848
v 0.000000 9.000000 -5.040000
v -3.563818 9.000000 -3.563818
v -5.040000 9.000000 0.000000
v -3.563818 9.000000 3.563818
v 0.000001 9.000000 5.040000
v 3.563819 9.000000 3.563818
v 5.040000 9.000000 -0.000000
v 3.563819 9.000000 -3.563818
v 0.000000 12.000000 -3.024000
v -2.138291 12.000000 -2.138291
v -3.024000 12.000000 0.000000
v -2.138291 12.000000 2.138291
v 0.000000 12.000000 3.024000
v 2.138292 12.000000 2.138291
v 3.024001 12.000000 -0.000000
v 2.138292 12.000000 -2.138291
v 0.000000 12.000000 -3.931201
v -2.779778 12.000000 -2.779779
v -3.931200 12.000000 0.000000
v -2.779778 12.000000 2.779779
v 0.000000 12.000000 3.931201
v 2.779779 12.000000 2.779778
v 3.931201 12.000000 -0.000000
v 2.779779 12.000000 -2.779779
v 0.000000 15.000000 -1.965600
v -1.389889 15.000000 -1.389889
v -1.965600 15.000000 0.000000
v -1.389889 15.000000 1.389889
v 0.000000 15.000000 1.965600
v 1.389890 15.000000 1.389889
v 1.965601 15.000000 -0.000000
v 1.389890 15.000000 -1.389889
v 0.000000 15.000000 -2.948400
v -2.084833 15.000000 -2.084834
v -2.948400 15.000000 0.000000
v -2.084833 15.000000 2.084834
v 0.000000 15.000000 2.948400
v 2.084835 15.000000 2.084834
v 2.948401 15.000000 -0.000000
v 2.084835 15.000000 -2.084834
v 0.000000 18.000000 -1.179360
v -0.833933 18.000000 -0.833934
v -1.179360 18.000000 0.000000
v -0.833933 18.000000 0.833934
v 0.000000 18.000000 1.179360
v 0.833934 18.000000 0.833933
v 1.179361 18.000000 -0.000000
v 0.833934 18.000000 -0.833934
v 0.000000 18.000000 -2.004913
v -1.417687 18.000000 -1.417687
v -2.004912 18.000000 0.000000
v -1.417687 18.000000 1.417687
v 0.000000 18.000000 2.004913
v 1.417688 18.000000 1.417687
v 2.004913 18.000000 -0.000000
v 1.417688 18.000000 -1.417687
v 0.000000 21.000000 -0.000000
v 0.000000 -2.000000 0.000000
vt 0.229425 0.575960
vt 0.187500 0.558594
vt 0.204866 0.600519
vt 0.170134 0.600519
vt 0.145575 0.575960
vt 0.145575 0.541228
vt 0.170134 0.516669
vt 0.204866 0.516669
vt 0.229425 0.541228
vt 0.074217 0.815183
vt 0.071458 0.839650
vt 0.089650 0.821458
vt 0.045730 0.839650
vt 0.042887 0.814982
vt 0.027538 0.821458
vt 0.042970 0.802004
vt 0.045730 0.777538
vt 0.027538 0.795730
vt 0.065183 0.792970
vt 0.089650 0.795730
vt 0.071458 0.777538
vt 0.064982 0.824301
vt 0.052206 0.792887
vt 0.074301 0.802206
vt 0.064052 0.795803
vt 0.063778 0.821497
vt 0.052004 0.824217
vt 0.045690 0.813779
vt 0.053409 0.795690
vt 0.071497 0.803409
vt 0.045803 0.803136
vt 0.185066 0.819029
vt 0.184872 0.829310
vt 0.192478 0.821864
vt 0.177065 0.821785
vt 0.166784 0.821591
vt 0.174229 0.829197
vt 0.174309 0.813784
vt 0.174503 0.803503
vt 0.166897 0.810948
vt 0.182310 0.811027
vt 0.192591 0.811221
vt 0.185146 0.803616
vt 0.181637 0.822064
vt 0.174030 0.818355
vt 0.057141 0.804385
vt 0.061216 0.803215
vt 0.056645 0.802936
vt 0.064252 0.806645
vt 0.062597 0.810543
vt 0.063973 0.811216
vt 0.060543 0.814252
vt 0.056645 0.812597
vt 0.052936 0.810543
vt 0.055971 0.813973
vt 0.053215 0.805971
vt 0.062802 0.807141
vt 0.060046 0.812802
vt 0.054385 0.810046
vt 0.058976 0.810039
vt 0.057149 0.808976
vt 0.054591 0.806645
vt 0.058212 0.807149
vt 0.060543 0.804591
vt 0.060039 0.808212
vt 0.059886 0.809346
vt 0.057842 0.809886
vt 0.057302 0.807842
vt 0.059345 0.807302
vt 0.057808 0.808155
vt 0.059459 0.808349
vt 0.058839 0.809459
vt 0.057728 0.808839
vt 0.058348 0.807728
vt 0.059379 0.809032
vt 0.183769 0.816530
vt 0.183839 0.817272
vt 0.184379 0.816845
vt 0.183470 0.816581
vt 0.182728 0.816652
vt 0.183155 0.817192
vt 0.183419 0.816282
vt 0.183348 0.815541
vt 0.182808 0.815968
vt 0.183718 0.816231
vt 0.184459 0.816161
vt 0.184032 0.815621
vt 0.183630 0.816618
vt 0.183382 0.816442
vt 0.183805 0.816370
vt 0.058497 0.808614
vt 0.058419 0.808470
vt 0.058382 0.808630
vt 0.058573 0.808497
vt 0.058718 0.808419
vt 0.058558 0.808383
vt 0.058690 0.808573
vt 0.058769 0.808718
vt 0.058805 0.808558
vt 0.058614 0.808690
vt 0.058630 0.808805
vt 0.058540 0.808676
vt 0.058470 0.808769
vt 0.058594 0.808594
vt 0.058511 0.808540
vt 0.058648 0.808511
vt 0.058676 0.808648
vt 0.229425 0.575960
vt 0.170134 0.600519
vt 0.145575 0.541228
vt 0.204866 0.516669
vt 0.204866 0.600519
vt 0.145575 0.575960
vt 0.170134 0.516669
vt 0.229425 0.541228
vt 0.053136 0.821384
vt 0.071384 0.814052
vt 0.177738 0.810748
vt 0.185345 0.814457
vt 0.059032 0.807808
vt 0.058155 0.809379
vt 0.183558 0.816195
vn 0.3823 0.0461 -0.9229
vn 0.9229 0.0461 0.3823
vn -0.3823 0.0461 0.9229
vn -0.9229 0.0461 -0.3823
vn 0.9229 0.0461 -0.3823
vn 0.3823 0.0461 0.9229
vn -0.9229 0.0461 0.3823
vn -0.3823 0.0461 -0.9229
vn 0.3347 0.4848 -0.8080
vn 0.8080 0.4848 0.3347
vn -0.3347 0.4848 0.8080
vn -0.8080 0.4848 -0.3347
vn 0.8080 0.4848 -0.3347
vn 0.3347 0.4848 0.8080
vn -0.8080 0.4848 0.3347
vn -0.3347 0.4848 -0.8080
vn 0.0000 -1.0000 0.0000
vn 0.3251 0.5275 -0.7849
vn 0.7849 0.5275 0.3251
vn -0.3251 0.5275 0.7849
vn -0.7849 0.5275 -0.3251
vn 0.7849 0.5275 -0.3251
vn 0.3251 0.5275 0.7849
vn -0.7849 0.5275 0.3251
vn -0.3251 0.5275 -0.7849
vn 0.7904 0.5178 -0.3274
vn 0.3274 0.5178 0.7904
vn -0.7904 0.5178 0.3274
vn -0.3274 0.5178 -0.7904
vn 0.3274 0.5178 -0.7904
vn 0.7904 0.5178 0.3274
vn -0.3274 0.5178 0.7904
vn -0.7904 0.5178 -0.3274
vn 0.3360 0.4784 -0.8113
vn 0.8113 0.4784 0.3360
vn -0.3360 0.4784 0.8113
vn -0.8113 0.4784 -0.3360
vn 0.8113 0.4784 -0.3360
vn 0.3360 0.4784 0.8113
vn -0.8113 0.4784 0.3360
vn -0.3360 0.4784 -0.8113
vn 0.7861 0.5254 -0.3256
vn 0.3256 0.5254 0.7861
vn -0.7861 0.5254 0.3256
vn -0.3256 0.5254 -0.7861
vn 0.3256 0.5254 -0.7861
vn 0.7861 0.5254 0.3256
vn -0.3256 0.5254 0.7861
vn -0.7861 0.5254 -0.3256
vn 0.3474 -0.4194 -0.8387
vn 0.8387 -0.4194 0.3474
vn -0.3474 -0.4194 0.8387
vn -0.8387 -0.4194 -0.3474
vn 0.8387 -0.4194 -0.3474
vn 0.3474 -0.4194 0.8387
vn -0.8387 -0.4194 0.3474
vn -0.3474 -0.4194 -0.8387
s off
f 1/1/1 9/2/1 8/3/1
f 7/4/2 9/2/2 6/5/2
f 5/6/3 9/2/3 4/7/3
f 3/8/4 9/2/4 2/9/4
f 8/3/5 9/2/5 7/4/5
f 6/5/6 9/2/6 5/6/6
f 4/7/7 9/2/7 3/8/7
f 2/9/8 9/2/8 1/1/8
f 18/10/9 17/11/9 10/12/9
f 16/13/10 23/14/10 15/15/10
f 22/16/11 13/17/11 14/18/11
f 20/19/12 11/20/12 12/21/12
f 25/22/13 16/13/13 17/11/13
f 23/14/14 14/18/14 15/15/14
f 21/23/15 12/21/15 13/17/15
f 19/24/16 10/12/16 11/20/16
f 28/25/17 19/24/17 20/19/17
f 33/26/17 24/27/17 25/22/17
f 31/28/17 22/16/17 23/14/17
f 29/29/17 20/19/17 21/23/17
f 27/30/17 18/10/17 19/24/17
f 18/10/17 33/26/17 25/22/17
f 24/27/17 31/28/17 23/14/17
f 30/31/17 21/23/17 22/16/17
f 34/32/18 33/33/18 26/34/18
f 40/35/19 31/36/19 32/37/19
f 38/38/20 29/39/20 30/40/20
f 36/41/21 27/42/21 28/43/21
f 41/44/22 32/37/22 33/33/22
f 39/45/23 30/40/23 31/36/23
f 29/39/24 36/41/24 28/43/24
f 27/42/25 34/32/25 26/34/25
f 45/46/17 36/47/17 37/48/17
f 35/49/17 42/50/17 34/51/17
f 42/50/17 41/52/17 34/51/17
f 48/53/17 39/54/17 40/55/17
f 38/56/17 45/46/17 37/48/17
f 36/47/17 43/57/17 35/49/17
f 49/58/17 40/55/17 41/52/17
f 47/59/17 38/56/17 39/54/17
f 57/60/26 48/53/26 49/58/26
f 55/61/27 46/62/27 47/59/27
f 53/63/28 44/64/28 45/46/28
f 51/65/29 42/50/29 43/57/29
f 50/66/30 49/58/30 42/50/30
f 56/67/31 47/59/31 48/53/31
f 54/68/32 45/46/32 46/62/32
f 52/69/33 43/57/33 44/64/33
f 62/70/17 53/63/17 54/68/17
f 52/69/17 59/71/17 51/65/17
f 65/72/17 56/67/17 57/60/17
f 63/73/17 54/68/17 55/61/17
f 61/74/17 52/69/17 53/63/17
f 59/71/17 50/66/17 51/65/17
f 58/75/17 57/60/17 50/66/17
f 56/67/17 63/73/17 55/61/17
f 66/76/34 65/77/34 58/78/34
f 72/79/35 63/80/35 64/81/35
f 70/82/36 61/83/36 62/84/36
f 68/85/37 59/86/37 60/87/37
f 73/88/38 64/81/38 65/77/38
f 71/89/39 62/84/39 63/80/39
f 61/83/40 68/85/40 60/87/40
f 67/90/41 58/78/41 59/86/41
f 79/91/17 70/92/17 71/93/17
f 77/94/17 68/95/17 69/96/17
f 75/97/17 66/98/17 67/99/17
f 66/98/17 81/100/17 73/101/17
f 80/102/17 71/93/17 72/103/17
f 70/92/17 77/94/17 69/96/17
f 68/95/17 75/97/17 67/99/17
f 81/100/17 72/103/17 73/101/17
f 81/100/42 82/104/42 80/102/42
f 79/91/43 82/104/43 78/105/43
f 77/94/44 82/104/44 76/106/44
f 75/97/45 82/104/45 74/107/45
f 74/107/46 82/104/46 81/100/46
f 80/102/47 82/104/47 79/91/47
f 78/105/48 82/104/48 77/94/48
f 76/106/49 82/104/49 75/97/49
f 12/21/17 10/12/17 16/13/17
f 1/1/50 8/3/50 83/108/50
f 7/4/51 6/5/51 83/109/51
f 5/6/52 4/7/52 83/110/52
f 3/8/53 2/9/53 83/111/53
f 8/3/54 7/4/54 83/112/54
f 6/5/55 5/6/55 83/113/55
f 4/7/56 3/8/56 83/114/56
f 2/9/57 1/1/57 83/115/57
f 18/10/9 25/22/9 17/11/9
f 16/13/10 24/27/10 23/14/10
f 22/16/11 21/23/11 13/17/11
f 20/19/12 19/24/12 11/20/12
f 25/22/13 24/27/13 16/13/13
f 23/14/14 22/16/14 14/18/14
f 21/23/15 20/19/15 12/21/15
f 19/24/16 18/10/16 10/12/16
f 28/25/17 27/30/17 19/24/17
f 33/26/17 32/116/17 24/27/17
f 31/28/17 30/31/17 22/16/17
f 29/29/17 28/25/17 20/19/17
f 27/30/17 26/117/17 18/10/17
f 18/10/17 26/117/17 33/26/17
f 24/27/17 32/116/17 31/28/17
f 30/31/17 29/29/17 21/23/17
f 34/32/18 41/44/18 33/33/18
f 40/35/19 39/45/19 31/36/19
f 38/38/20 37/118/20 29/39/20
f 36/41/21 35/119/21 27/42/21
f 41/44/22 40/35/22 32/37/22
f 39/45/23 38/38/23 30/40/23
f 29/39/24 37/118/24 36/41/24
f 27/42/25 35/119/25 34/32/25
f 45/46/17 44/64/17 36/47/17
f 35/49/17 43/57/17 42/50/17
f 42/50/17 49/58/17 41/52/17
f 48/53/17 47/59/17 39/54/17
f 38/56/17 46/62/17 45/46/17
f 36/47/17 44/64/17 43/57/17
f 49/58/17 48/53/17 40/55/17
f 47/59/17 46/62/17 38/56/17
f 57/60/26 56/67/26 48/53/26
f 55/61/27 54/68/27 46/62/27
f 53/63/28 52/69/28 44/64/28
f 51/65/29 50/66/29 42/50/29
f 50/66/30 57/60/30 49/58/30
f 56/67/31 55/61/31 47/59/31
f 54/68/32 53/63/32 45/46/32
f 52/69/33 51/65/33 43/57/33
f 62/70/17 61/74/17 53/63/17
f 52/69/17 60/120/17 59/71/17
f 65/72/17 64/121/17 56/67/17
f 63/73/17 62/70/17 54/68/17
f 61/74/17 60/120/17 52/69/17
f 59/71/17 58/75/17 50/66/17
f 58/75/17 65/72/17 57/60/17
f 56/67/17 64/121/17 63/73/17
f 66/76/34 73/88/34 65/77/34
f 72/79/35 71/89/35 63/80/35
f 70/82/36 69/122/36 61/83/36
f 68/85/37 67/90/37 59/86/37
f 73/88/38 72/79/38 64/81/38
f 71/89/39 70/82/39 62/84/39
f 61/83/40 69/122/40 68/85/40
f 67/90/41 66/76/41 58/78/41
f 79/91/17 78/105/17 70/92/17
f 77/94/17 76/106/17 68/95/17
f 75/97/17 74/107/17 66/98/17
f 66/98/17 74/107/17 81/100/17
f 80/102/17 79/91/17 71/93/17
f 70/92/17 78/105/17 77/94/17
f 68/95/17 76/106/17 75/97/17
f 81/100/17 80/102/17 72/103/17
f 12/21/17 11/20/17 10/12/17
f 10/12/17 17/11/17 16/13/17
f 16/13/17 15/15/17 14/18/17
f 14/18/17 13/17/17 16/13/17
f 13/17/17 12/21/17 16/13/17
