# Blender v2.80 (sub 75) OBJ File: 'sword.blend'
# www.blender.org
o Circle
v 0.072494 0.133891 0.867169
v -0.072494 0.133891 0.867169
v 0.072494 0.133891 0.126224
v -0.072494 0.133891 0.126224
v 0.093401 0.170104 0.914932
v -0.093401 0.170104 0.914932
v 0.093401 0.170104 1.036688
v -0.093401 0.170104 1.036688
v 0.065357 0.121530 1.089126
v -0.065357 0.121530 1.089126
v -0.162540 0.000000 0.047267
v 0.055106 0.634904 0.047267
v -0.055106 0.634904 0.047267
v -0.162540 0.000000 -0.041567
v 0.055106 0.634904 -0.041567
v -0.055106 0.634904 -0.041567
v -0.000000 0.222810 -0.120071
v -0.071097 0.685599 0.054709
v 0.071097 0.685599 0.054709
v -0.071097 0.685599 -0.049009
v 0.071097 0.685600 -0.049009
v -0.045925 0.722383 0.042994
v 0.045925 0.722383 0.042994
v -0.045925 0.722383 -0.037294
v 0.045925 0.722383 -0.037294
v -0.000000 0.276869 -3.490960
v -0.144987 0.000000 0.867169
v 0.144987 0.000000 0.867169
v 0.072494 -0.133890 0.867169
v -0.072494 -0.133890 0.867169
v -0.144987 0.000000 0.126224
v 0.144987 0.000000 0.126224
v 0.072494 -0.133890 0.126224
v -0.072494 -0.133890 0.126224
v -0.186803 0.000000 0.914932
v 0.186803 0.000000 0.914932
v 0.093401 -0.170104 0.914932
v -0.093402 -0.170104 0.914932
v -0.186803 0.000000 1.036688
v 0.186803 0.000000 1.036688
v 0.093401 -0.170104 1.036688
v -0.093402 -0.170104 1.036688
v -0.130715 0.000000 1.089126
v 0.130715 0.000000 1.089126
v 0.065357 -0.121530 1.089126
v -0.065357 -0.121530 1.089126
v 0.162540 0.000000 0.047267
v 0.055106 -0.634904 0.047267
v -0.055106 -0.634904 0.047267
v 0.162540 0.000000 -0.041567
v 0.055106 -0.634904 -0.041567
v -0.055106 -0.634904 -0.041567
v -0.049049 0.000000 -0.082528
v 0.049049 0.000000 -0.082528
v -0.000000 -0.222809 -0.120071
v -0.071097 -0.685599 0.054709
v 0.071097 -0.685599 0.054709
v -0.071097 -0.685599 -0.049009
v 0.071097 -0.685599 -0.049009
v -0.045925 -0.722383 0.042994
v 0.045925 -0.722383 0.042994
v -0.045925 -0.722383 -0.037294
v 0.045925 -0.722383 -0.037294
v -0.000000 -0.276869 -3.490960
v 0.032181 0.000000 -3.453417
v -0.032181 0.000000 -3.453417
v -0.000000 0.000000 -4.227026
vt 0.293674 0.459325
vt 0.274640 0.449374
vt 0.275934 0.456735
vt 0.309549 0.403652
vt 0.291424 0.428325
vt 0.295958 0.424959
vt 0.360146 0.545668
vt 0.348344 0.603102
vt 0.360146 0.603102
vt 0.348344 0.545668
vt 0.337105 0.603102
vt 0.337105 0.545668
vt 0.325303 0.603102
vt 0.324582 0.449170
vt 0.305855 0.444133
vt 0.308028 0.452186
vt 0.308570 0.457590
vt 0.323506 0.455373
vt 0.304379 0.439095
vt 0.294788 0.444344
vt 0.294119 0.452827
vt 0.320749 0.435903
vt 0.295980 0.439767
vt 0.280418 0.435322
vt 0.312533 0.400564
vt 0.310319 0.402559
vt 0.278935 0.440224
vt 0.286476 0.442083
vt 0.292336 0.426325
vt 0.292695 0.424620
vt 0.291220 0.424663
vt 0.294452 0.417916
vt 0.308654 0.403373
vt 0.310621 0.403616
vt 0.280741 0.434431
vt 0.310649 0.401972
vt 0.310114 0.402350
vt 0.309718 0.402648
vt 0.311287 0.402062
vt 0.314342 0.397853
vt 0.310921 0.400896
vt 0.312155 0.401077
vt 0.287850 0.431106
vt 0.514053 0.470791
vt 0.549324 0.412194
vt 0.512834 0.471126
vt 0.551142 0.413310
vt 0.514053 0.472476
vt 0.550360 0.412547
vt 0.554287 0.406089
vt 0.293673 0.402871
vt 0.274640 0.412823
vt 0.294119 0.409369
vt 0.312754 0.459278
vt 0.284805 0.444833
vt 0.307095 0.458265
vt 0.302225 0.603106
vt 0.290443 0.545668
vt 0.290423 0.603102
vt 0.313463 0.603110
vt 0.302245 0.545673
vt 0.313483 0.545676
vt 0.308028 0.410010
vt 0.320749 0.426293
vt 0.324582 0.413026
vt 0.308570 0.404606
vt 0.323506 0.406823
vt 0.294788 0.417852
vt 0.304379 0.423101
vt 0.305856 0.418063
vt 0.313725 0.431090
vt 0.280418 0.426874
vt 0.295981 0.422429
vt 0.285220 0.444922
vt 0.282168 0.443352
vt 0.329023 0.464306
vt 0.311122 0.457921
vt 0.310017 0.456476
vt 0.311417 0.455924
vt 0.305419 0.451243
vt 0.308301 0.456658
vt 0.285149 0.445777
vt 0.285844 0.444243
vt 0.324838 0.459893
vt 0.282632 0.443367
vt 0.283987 0.443891
vt 0.284375 0.445009
vt 0.283916 0.444707
vt 0.282502 0.444416
vt 0.278935 0.442098
vt 0.283551 0.444409
vt 0.557458 0.413313
vt 0.573888 0.480715
vt 0.575701 0.480715
vt 0.555402 0.413876
vt 0.574468 0.479582
vt 0.556364 0.413362
vt 0.325303 0.545668
vt 0.294285 0.423946
vt 0.278935 0.425582
vt 0.275934 0.405461
vt 0.323174 0.469264
vt 0.322560 0.451243
vn 0.6968 0.3773 -0.6100
vn 0.0000 0.1557 0.9878
vn 0.8794 0.4761 -0.0000
vn 0.0000 1.0000 0.0000
vn -0.8794 0.4761 0.0000
vn -0.8766 0.4813 0.0000
vn 0.0000 0.7969 -0.6042
vn -0.6968 0.3773 -0.6100
vn 0.0000 0.7336 0.6796
vn 0.8766 0.4813 -0.0000
vn -0.6468 0.3552 0.6749
vn 0.6468 0.3552 0.6749
vn 0.0000 -0.1452 0.9894
vn -0.8630 0.4673 0.1919
vn 0.8630 0.4673 0.1919
vn 0.5302 0.0897 -0.8431
vn -0.9860 0.1668 0.0000
vn 0.9860 0.1668 0.0000
vn 0.0000 0.1871 -0.9823
vn -0.5302 0.0897 -0.8431
vn 0.8253 0.5648 -0.0000
vn -0.9537 -0.3008 0.0000
vn 0.0000 -0.1452 -0.9894
vn 0.9537 -0.3008 0.0000
vn -0.0000 0.3035 -0.9528
vn -0.8253 0.5648 0.0000
vn -0.0000 0.3035 0.9528
vn 0.0000 0.0000 1.0000
vn -0.9768 0.2142 -0.0049
vn 0.9768 0.2142 -0.0049
vn -0.9931 0.1098 -0.0413
vn 0.9931 0.1098 -0.0413
vn 0.7017 -0.3853 -0.5993
vn -0.0000 -0.1557 0.9878
vn 0.8794 -0.4761 -0.0000
vn -0.0000 -1.0000 0.0000
vn -0.8794 -0.4761 0.0000
vn -0.8766 -0.4813 0.0000
vn -0.0000 -0.7969 -0.6042
vn -0.6968 -0.3773 -0.6100
vn 0.0000 -0.7336 0.6796
vn 0.8766 -0.4813 -0.0000
vn -0.6411 -0.3448 0.6857
vn 0.6468 -0.3552 0.6749
vn 0.0000 0.1452 0.9894
vn -0.7544 -0.1277 0.6439
vn 0.8630 -0.4673 0.1919
vn 0.3383 0.0835 -0.9373
vn -0.9860 -0.1668 0.0000
vn 0.9860 -0.1668 0.0000
vn 0.0000 -0.1871 -0.9823
vn -0.5302 -0.0897 -0.8431
vn 0.8253 -0.5647 0.0000
vn -0.9537 0.3008 0.0000
vn -0.0000 0.1452 -0.9894
vn 0.9537 0.3008 0.0000
vn 0.0000 -0.3035 -0.9528
vn -0.8253 -0.5648 -0.0000
vn 0.0000 -0.3035 0.9528
vn -0.9933 -0.1157 0.0019
vn 0.9768 -0.2142 -0.0049
vn -0.9931 -0.1098 -0.0413
vn 0.9931 -0.1098 -0.0413
vn 0.7017 0.3853 -0.5993
vn -0.7017 0.3853 -0.5993
vn -0.6411 0.3448 0.6857
vn 0.6411 0.3448 0.6857
vn -0.7544 0.1277 0.6439
vn 0.7544 0.1277 0.6439
vn 0.3383 -0.0835 -0.9373
vn -0.3383 -0.0835 -0.9373
vn -0.9933 0.1157 0.0019
vn 0.9933 0.1157 0.0019
vn 0.6968 -0.3773 -0.6100
vn -0.7017 -0.3853 -0.5993
vn -0.6468 -0.3552 0.6749
vn 0.6411 -0.3448 0.6857
vn -0.8630 -0.4673 0.1919
vn 0.7544 -0.1277 0.6439
vn 0.5302 -0.0897 -0.8431
vn -0.3383 0.0835 -0.9373
vn -0.8253 -0.5647 0.0000
vn -0.9768 -0.2142 -0.0049
vn 0.9933 -0.1157 0.0019
s off
f 1/1/1 36/2/1 28/3/1
f 12/4/2 4/5/2 3/6/2
f 32/7/3 1/8/3 28/9/3
f 3/10/4 2/11/4 1/8/4
f 4/12/5 27/13/5 2/11/5
f 35/14/6 8/15/6 6/16/6
f 6/16/7 1/1/7 2/17/7
f 35/14/8 2/17/8 27/18/8
f 10/19/9 7/20/9 8/15/9
f 7/20/10 36/2/10 5/21/10
f 8/15/4 5/21/4 6/16/4
f 39/22/11 10/19/11 8/15/11
f 9/23/12 40/24/12 7/20/12
f 12/4/13 18/25/13 13/26/13
f 4/5/14 11/27/14 31/28/14
f 47/29/15 3/6/15 32/30/15
f 50/31/16 17/32/16 15/33/16
f 16/34/17 11/27/17 13/26/17
f 50/31/18 12/4/18 47/29/18
f 15/33/19 17/32/19 16/34/19
f 17/32/20 14/35/20 16/34/20
f 25/36/21 19/37/21 21/38/21
f 13/26/22 20/39/22 16/34/22
f 16/34/23 21/38/23 15/33/23
f 21/38/24 12/4/24 15/33/24
f 25/36/4 22/40/4 23/41/4
f 24/42/25 21/38/25 20/39/25
f 22/40/26 20/39/26 18/25/26
f 23/41/27 18/25/27 19/37/27
f 10/19/28 44/43/28 9/23/28
f 17/44/29 66/45/29 53/46/29
f 65/47/30 17/44/30 54/48/30
f 26/49/31 67/50/31 66/45/31
f 65/47/32 67/50/32 26/49/32
f 29/51/33 36/52/33 37/53/33
f 34/54/34 48/55/34 33/56/34
f 29/57/35 32/58/35 28/59/35
f 30/60/36 33/61/36 29/57/36
f 27/13/37 34/62/37 30/60/37
f 38/63/38 39/64/38 35/65/38
f 29/51/39 38/63/39 30/66/39
f 30/66/40 35/65/40 27/67/40
f 41/68/41 46/69/41 42/70/41
f 36/52/42 41/68/42 37/53/42
f 37/53/36 42/70/36 38/63/36
f 39/64/43 46/69/43 43/71/43
f 40/72/44 45/73/44 41/68/44
f 49/74/45 57/75/45 48/55/45
f 34/54/46 11/76/46 49/74/46
f 33/56/47 47/77/47 32/78/47
f 50/79/48 55/80/48 54/81/48
f 11/76/49 52/82/49 49/74/49
f 48/55/50 50/79/50 47/77/50
f 51/83/51 52/82/51 55/80/51
f 14/84/52 55/80/52 52/82/52
f 57/75/53 63/85/53 59/86/53
f 49/74/54 58/87/54 56/88/54
f 52/82/55 59/86/55 58/87/55
f 48/55/56 59/86/56 51/83/56
f 60/89/36 63/85/36 61/90/36
f 58/87/57 63/85/57 62/91/57
f 58/87/58 60/89/58 56/88/58
f 56/88/59 61/90/59 57/75/59
f 44/43/28 46/69/28 45/73/28
f 66/92/36 54/93/36 53/94/36
f 66/92/36 67/50/36 65/95/36
f 55/96/60 66/92/60 64/97/60
f 55/96/61 65/95/61 54/93/61
f 64/97/62 66/92/62 67/50/62
f 65/95/63 64/97/63 67/50/63
f 1/1/64 5/21/64 36/2/64
f 12/4/2 13/26/2 4/5/2
f 32/7/3 3/10/3 1/8/3
f 3/10/4 4/12/4 2/11/4
f 4/12/5 31/98/5 27/13/5
f 35/14/6 39/22/6 8/15/6
f 6/16/7 5/21/7 1/1/7
f 35/14/65 6/16/65 2/17/65
f 10/19/9 9/23/9 7/20/9
f 7/20/10 40/24/10 36/2/10
f 8/15/4 7/20/4 5/21/4
f 39/22/66 43/71/66 10/19/66
f 9/23/67 44/43/67 40/24/67
f 12/4/13 19/37/13 18/25/13
f 4/5/68 13/26/68 11/27/68
f 47/29/69 12/4/69 3/6/69
f 50/31/70 54/99/70 17/32/70
f 16/34/17 14/35/17 11/27/17
f 50/31/18 15/33/18 12/4/18
f 17/32/71 53/100/71 14/35/71
f 25/36/21 23/41/21 19/37/21
f 13/26/22 18/25/22 20/39/22
f 16/34/23 20/39/23 21/38/23
f 21/38/24 19/37/24 12/4/24
f 25/36/4 24/42/4 22/40/4
f 24/42/25 25/36/25 21/38/25
f 22/40/26 24/42/26 20/39/26
f 23/41/27 22/40/27 18/25/27
f 10/19/28 43/71/28 44/43/28
f 17/44/72 26/49/72 66/45/72
f 65/47/73 26/49/73 17/44/73
f 29/51/74 28/101/74 36/52/74
f 34/54/34 49/74/34 48/55/34
f 29/57/35 33/61/35 32/58/35
f 30/60/36 34/62/36 33/61/36
f 27/13/37 31/98/37 34/62/37
f 38/63/38 42/70/38 39/64/38
f 29/51/39 37/53/39 38/63/39
f 30/66/75 38/63/75 35/65/75
f 41/68/41 45/73/41 46/69/41
f 36/52/42 40/72/42 41/68/42
f 37/53/36 41/68/36 42/70/36
f 39/64/76 42/70/76 46/69/76
f 40/72/77 44/43/77 45/73/77
f 49/74/45 56/88/45 57/75/45
f 34/54/78 31/102/78 11/76/78
f 33/56/79 48/55/79 47/77/79
f 50/79/80 51/83/80 55/80/80
f 11/76/49 14/84/49 52/82/49
f 48/55/50 51/83/50 50/79/50
f 14/84/81 53/103/81 55/80/81
f 57/75/53 61/90/53 63/85/53
f 49/74/54 52/82/54 58/87/54
f 52/82/55 51/83/55 59/86/55
f 48/55/56 57/75/56 59/86/56
f 60/89/36 62/91/36 63/85/36
f 58/87/57 59/86/57 63/85/57
f 58/87/82 62/91/82 60/89/82
f 56/88/59 60/89/59 61/90/59
f 44/43/28 43/71/28 46/69/28
f 66/92/36 65/95/36 54/93/36
f 55/96/83 53/94/83 66/92/83
f 55/96/84 64/97/84 65/95/84
